# xmcd
#
# Track frame offsets: 
#        150
#        14970
#        32545
#        49810
#        64510
#        82125
#        96902
#        111075
#        126630
#        142815
#        159035
#        175650
#        192590
#
# Disc length: 2796 seconds
#
# Revision: 3
# Processed by: cddbd v1.5.1PL2 Copyright (c) Steve Scherf et al.
# Submitted via: ExactAudioCopy v0.95b4
#
DISCID=b10aea0d
DTITLE=Hi-5 - Ξέρω Τι Ζητάω
DYEAR=2003
DGENRE=Ethnic
TTITLE0=Το Τυχερό Αστέρι
TTITLE1=Και Σε Θέλω
TTITLE2=Ψάξε
TTITLE3=All The Woman You Need
TTITLE4=Ξέρω Τι Ζητάω
TTITLE5=Φτάνει Πιά
TTITLE6=Πρώτη Φορά
TTITLE7=Πες Μου Πώς
TTITLE8=Άλλο Αγάπη Και Άλλο Sex
TTITLE9=Όλα Μπορούν Να Αλλάξουνε
TTITLE10=Μ'Ένα Φιλί
TTITLE11=Λάθος Ή Σωστό
TTITLE12=I Was Made For Lovin' You
EXTD=YEAR: 2003
EXTT0=
EXTT1=
EXTT2=
EXTT3=
EXTT4=
EXTT5=
EXTT6=
EXTT7=
EXTT8=
EXTT9=
EXTT10=
EXTT11=
EXTT12=
PLAYORDER=
